<svg width="13" height="25" viewBox="0 0 13 25" fill="none" xmlns="http://www.w3.org/2000/svg">
<path d="M10.9167 10.3959H1.54175" stroke="#5051F9" stroke-miterlimit="10"/>
<path d="M1.54175 18.2084H10.9167" stroke="#5051F9" stroke-miterlimit="10"/>
<path d="M10.9167 18.2083C11.1929 18.2083 11.4579 18.318 11.6532 18.5134C11.8486 18.7087 11.9583 18.9737 11.9583 19.2499V22.8958C11.9583 23.3102 11.7937 23.7076 11.5007 24.0006C11.2077 24.2937 10.8102 24.4583 10.3958 24.4583H2.0625C1.6481 24.4583 1.25067 24.2937 0.957645 24.0006C0.66462 23.7076 0.5 23.3102 0.5 22.8958V19.2499C0.5 18.9737 0.609747 18.7087 0.805097 18.5134C1.00045 18.318 1.2654 18.2083 1.54167 18.2083V10.3958C1.2654 10.3958 1.00045 10.286 0.805097 10.0907C0.609747 9.89533 0.5 9.63038 0.5 9.35412V7.27078C0.5 6.44198 0.82924 5.64713 1.41529 5.06107C2.00134 4.47502 2.7962 4.14578 3.625 4.14578H8.83333C9.66213 4.14578 10.457 4.47502 11.043 5.06107C11.6291 5.64713 11.9583 6.44198 11.9583 7.27078V9.35412C11.9583 9.63038 11.8486 9.89533 11.6532 10.0907C11.4579 10.286 11.1929 10.3958 10.9167 10.3958V18.2083Z" stroke="#5051F9" stroke-miterlimit="10"/>
<path d="M8.83333 4.14583V1.54167C8.83333 1.2654 8.72359 1.00045 8.52824 0.805097C8.33289 0.609747 8.06793 0.5 7.79167 0.5H4.66667C4.3904 0.5 4.12545 0.609747 3.9301 0.805097C3.73475 1.00045 3.625 1.2654 3.625 1.54167V4.14583" stroke="#5051F9" stroke-miterlimit="10"/>
</svg>
